<svg xmlns="http://www.w3.org/2000/svg" viewBox="0 0 512 512">
  <defs>
    <linearGradient id="m" x1="0.1" y1="0" x2="0.9" y2="1">
      <stop offset="0%" stop-color="#FF3A36"/><stop offset="50%" stop-color="#F01219"/><stop offset="100%" stop-color="#B80C12"/>
    </linearGradient>
  </defs>
  <rect width="512" height="512" fill="#000"/>
  <g transform="translate(256 256) scale(0.72) translate(-256 -256)">
    <g fill="none" stroke="url(#m)" stroke-width="42">
      <path d="M452 164 H252 C180 164 134 202 112 258"/>
      <path d="M60 348 H260 C332 348 378 310 400 254"/>
    </g>
    <path fill="none" stroke="url(#m)" stroke-width="28" stroke-linejoin="round"
          d="M256 188 C322 188 380 218 418 256 C380 294 322 324 256 324 C190 324 132 294 94 256 C132 218 190 188 256 188 Z"/>
    <g fill="url(#m)">
      <rect x="206" y="250" width="100" height="12" rx="6"/>
      <rect x="220" y="230" width="12" height="52" rx="6"/>
      <rect x="250" y="224" width="12" height="64" rx="6"/>
      <rect x="280" y="230" width="12" height="52" rx="6"/>
    </g>
  </g>
</svg>
